HIERARCHY
ROOT Hips
{
  OFFSET 5.84602e-005 68.8428 3.50346
  CHANNELS 6 Xposition Yposition Zposition Zrotation Xrotation Yrotation
  JOINT Spine
  {
    OFFSET 0 8.597 -4.6522
    CHANNELS 3 Zrotation Xrotation Yrotation
    JOINT Spine1
    {
      OFFSET 0 7.8454 0.4098
      CHANNELS 3 Zrotation Xrotation Yrotation
      JOINT Spine2
      {
        OFFSET 0 9.7078 -2.1609
        CHANNELS 3 Zrotation Xrotation Yrotation
        JOINT Neck
        {
          OFFSET 0 21.8761 -0.4549
          CHANNELS 3 Zrotation Xrotation Yrotation
          JOINT Head
          {
            OFFSET 0 12.3537 3.3602
            CHANNELS 3 Zrotation Xrotation Yrotation
            End Site
            {
              OFFSET 0.0001 18.9506 0.5657
            }
          }
        }
        JOINT LeftShoulder
        {
          OFFSET 2.2086 21.1115 7.2329
          CHANNELS 3 Zrotation Xrotation Yrotation
          JOINT LeftArm
          {
            OFFSET 13.1193 3.0282 -4.8998
            CHANNELS 3 Zrotation Xrotation Yrotation
            JOINT LeftForeArm
            {
              OFFSET 27.4081 -0.0973053 -0.2375
              CHANNELS 3 Zrotation Xrotation Yrotation
              JOINT LeftHand
              {
                OFFSET 22.8641 0.0662994 -0.1369
                CHANNELS 3 Zrotation Xrotation Yrotation
                JOINT LeftHandIndex1
                {
                  OFFSET 8.8614 0.775009 2.4612
                  CHANNELS 3 Zrotation Xrotation Yrotation
                  JOINT LeftHandIndex2
                  {
                    OFFSET 3.3146 -0.808304 0.5841
                    CHANNELS 3 Zrotation Xrotation Yrotation
                    JOINT LeftHandIndex3
                    {
                      OFFSET 2.2628 -0.552002 0.3989
                      CHANNELS 3 Zrotation Xrotation Yrotation
                      End Site
                      {
                        OFFSET 1.6102 -0.4807 0.2612
                      }
                    }
                  }
                }
                JOINT LeftHandMiddle1
                {
                  OFFSET 8.9937 0.895004 0.2143
                  CHANNELS 3 Zrotation Xrotation Yrotation
                  JOINT LeftHandMiddle2
                  {
                    OFFSET 4.0984 0.0113983 -0.0242
                    CHANNELS 3 Zrotation Xrotation Yrotation
                    JOINT LeftHandMiddle3
                    {
                      OFFSET 2.2716 0.00689697 -0.0138001
                      CHANNELS 3 Zrotation Xrotation Yrotation
                      End Site
                      {
                        OFFSET 2.0404 -0.1441 0.0027
                      }
                    }
                  }
                }
                JOINT LeftHandRing1
                {
                  OFFSET 8.5234 0.597198 -2.0164
                  CHANNELS 3 Zrotation Xrotation Yrotation
                  JOINT LeftHandRing2
                  {
                    OFFSET 3.7188 -0.188293 -0.2328
                    CHANNELS 3 Zrotation Xrotation Yrotation
                    JOINT LeftHandRing3
                    {
                      OFFSET 2.1191 -0.106598 -0.1332
                      CHANNELS 3 Zrotation Xrotation Yrotation
                      End Site
                      {
                        OFFSET 1.8737 -0.2304 -0.0886
                      }
                    }
                  }
                }
                JOINT LeftHandPinky1
                {
                  OFFSET 7.9094 -0.601089 -3.4825
                  CHANNELS 3 Zrotation Xrotation Yrotation
                  JOINT LeftHandPinky2
                  {
                    OFFSET 2.2874 -0.477005 -0.6314
                    CHANNELS 3 Zrotation Xrotation Yrotation
                    JOINT LeftHandPinky3
                    {
                      OFFSET 1.6774 -0.349396 -0.4633
                      CHANNELS 3 Zrotation Xrotation Yrotation
                      End Site
                      {
                        OFFSET 1.4888 -0.4091 -0.3416
                      }
                    }
                  }
                }
                JOINT LeftHandThumb1
                {
                  OFFSET 1.833 -1.3875 1.3896
                  CHANNELS 3 Zrotation Xrotation Yrotation
                  JOINT LeftHandThumb2
                  {
                    OFFSET 3.4129 -1.121 2.5732
                    CHANNELS 3 Zrotation Xrotation Yrotation
                    JOINT LeftHandThumb3
                    {
                      OFFSET 2.2474 -0.804199 1.6192
                      CHANNELS 3 Zrotation Xrotation Yrotation
                      End Site
                      {
                        OFFSET 1.6527 -0.5689 1.1317
                      }
                    }
                  }
                }
              }
            }
          }
        }
        JOINT RightShoulder
        {
          OFFSET -2.2086 21.1115 7.2329
          CHANNELS 3 Zrotation Xrotation Yrotation
          JOINT RightArm
          {
            OFFSET -13.1216 3.0287 -4.9007
            CHANNELS 3 Zrotation Xrotation Yrotation
            JOINT RightForeArm
            {
              OFFSET -27.4081 -0.0973053 -0.2375
              CHANNELS 3 Zrotation Xrotation Yrotation
              JOINT RightHand
              {
                OFFSET -22.8641 0.0664063 -0.1369
                CHANNELS 3 Zrotation Xrotation Yrotation
                JOINT RightHandIndex1
                {
                  OFFSET -8.8614 0.774994 2.4612
                  CHANNELS 3 Zrotation Xrotation Yrotation
                  JOINT RightHandIndex2
                  {
                    OFFSET -3.3146 -0.808304 0.5841
                    CHANNELS 3 Zrotation Xrotation Yrotation
                    JOINT RightHandIndex3
                    {
                      OFFSET -2.2628 -0.552002 0.3989
                      CHANNELS 3 Zrotation Xrotation Yrotation
                      End Site
                      {
                        OFFSET -1.6102 -0.4807 0.2612
                      }
                    }
                  }
                }
                JOINT RightHandMiddle1
                {
                  OFFSET -8.9937 0.894989 0.2143
                  CHANNELS 3 Zrotation Xrotation Yrotation
                  JOINT RightHandMiddle2
                  {
                    OFFSET -4.0984 0.0113983 -0.0242
                    CHANNELS 3 Zrotation Xrotation Yrotation
                    JOINT RightHandMiddle3
                    {
                      OFFSET -2.2716 0.00691223 -0.0138001
                      CHANNELS 3 Zrotation Xrotation Yrotation
                      End Site
                      {
                        OFFSET -2.0404 -0.1441 0.0027
                      }
                    }
                  }
                }
                JOINT RightHandRing1
                {
                  OFFSET -8.5234 0.597198 -2.0164
                  CHANNELS 3 Zrotation Xrotation Yrotation
                  JOINT RightHandRing2
                  {
                    OFFSET -3.7188 -0.188309 -0.2328
                    CHANNELS 3 Zrotation Xrotation Yrotation
                    JOINT RightHandRing3
                    {
                      OFFSET -2.1191 -0.106598 -0.1332
                      CHANNELS 3 Zrotation Xrotation Yrotation
                      End Site
                      {
                        OFFSET -1.8737 -0.2304 -0.0886
                      }
                    }
                  }
                }
                JOINT RightHandPinky1
                {
                  OFFSET -7.9094 -0.601105 -3.4825
                  CHANNELS 3 Zrotation Xrotation Yrotation
                  JOINT RightHandPinky2
                  {
                    OFFSET -2.2874 -0.477005 -0.6314
                    CHANNELS 3 Zrotation Xrotation Yrotation
                    JOINT RightHandPinky3
                    {
                      OFFSET -1.6774 -0.349396 -0.4633
                      CHANNELS 3 Zrotation Xrotation Yrotation
                      End Site
                      {
                        OFFSET -1.4888 -0.4091 -0.3416
                      }
                    }
                  }
                }
                JOINT RightHandThumb1
                {
                  OFFSET -1.833 -1.38751 1.3896
                  CHANNELS 3 Zrotation Xrotation Yrotation
                  JOINT RightHandThumb2
                  {
                    OFFSET -3.41299 -1.12099 2.5732
                    CHANNELS 3 Zrotation Xrotation Yrotation
                    JOINT RightHandThumb3
                    {
                      OFFSET -2.24741 -0.804108 1.6192
                      CHANNELS 3 Zrotation Xrotation Yrotation
                      End Site
                      {
                        OFFSET -1.6527 -0.5689 1.1317
                      }
                    }
                  }
                }
              }
            }
          }
        }
      }
    }
  }
  JOINT RightUpLeg
  {
    OFFSET -9.1966 3.8861 -0.7581
    CHANNELS 3 Zrotation Xrotation Yrotation
    JOINT RightLeg
    {
      OFFSET -0.7359 -41.0265 0
      CHANNELS 3 Zrotation Xrotation Yrotation
      JOINT RightFoot
      {
        OFFSET 0 -40.2855 0
        CHANNELS 3 Zrotation Xrotation Yrotation
        JOINT RightToeBase
        {
          OFFSET 0 -5.6122 11.7359
          CHANNELS 3 Zrotation Xrotation Yrotation
          End Site
          {
            OFFSET 0 0 7.8731
          }
        }
      }
    }
  }
  JOINT LeftUpLeg
  {
    OFFSET 9.1965 3.8864 -0.7581
    CHANNELS 3 Zrotation Xrotation Yrotation
    JOINT LeftLeg
    {
      OFFSET 0.7359 -41.0268 0
      CHANNELS 3 Zrotation Xrotation Yrotation
      JOINT LeftFoot
      {
        OFFSET 0 -40.2855 0
        CHANNELS 3 Zrotation Xrotation Yrotation
        JOINT LeftToeBase
        {
          OFFSET 0 -5.6122 11.7359
          CHANNELS 3 Zrotation Xrotation Yrotation
          End Site
          {
            OFFSET 0 0 7.8731
          }
        }
      }
    }
  }
}
MOTION
Frames:	6
Frame Time:	0.0333333
-0.002946 -7.46726 14.4955 -90.3963 -89.7304 89.3514 0.363387 -2.66836 -0.126102 0.722063 -5.33744 -0.235623 0.722063 -5.33746 -0.235622 1.40604e-005 17.5892 -8.2809e-006 180 -87.8659 180 32.2286 -39.7555 17.0433 -48.9412 -8.61685 -44.0869 -6.99751 -24.2572 -88.7703 -9.65487 -11.0712 22.8183 -1.00386e-007 2.3642e-006 -8.06742e-007 -5.22432e-007 3.82398e-006 -2.93777e-006 -1.00387e-007 2.3642e-006 -8.06742e-007 -1.00386e-007 2.3642e-006 -8.06742e-007 -0.0146441 -8.99109e-005 -5.12637e-006 1.37935e-033 -1.98785e-016 3.97569e-016 -1.00386e-007 2.3642e-006 -8.06742e-007 -0.018774 -0.00118309 5.95372e-005 -1.13796e-032 2.98177e-016 2.18663e-015 -1.00386e-007 2.3642e-006 -8.06742e-007 -0.012306 -0.00325691 0.000675168 1.0169e-007 -2.36394e-006 8.06414e-007 -1.00386e-007 2.3642e-006 -8.06742e-007 -5.22432e-007 3.82398e-006 -2.93777e-006 -1.00387e-007 2.3642e-006 -8.06742e-007 -32.3541 -39.8714 -16.5321 48.9325 -8.52149 43.9734 7.03619 -24.263 89.2934 9.02102 -10.9377 -23.5042 1.14204e-006 9.99487e-007 -6.99138e-007 -3.18055e-015 7.45443e-016 2.18663e-015 6.09203e-007 1.91925e-006 -1.27361e-006 1.14204e-006 9.99487e-007 -6.99138e-007 0.0150002 -9.74296e-005 -3.26676e-006 6.07898e-007 1.9191e-006 -1.27386e-006 1.14204e-006 9.99487e-007 -6.99138e-007 0.0190127 -0.00118943 -6.34159e-005 2.85449e-007 4.28292e-006 -6.956e-007 1.14204e-006 9.99487e-007 -6.99138e-007 0.0123444 -0.00326777 -0.000680485 2.85291e-007 4.28292e-006 -6.95367e-007 1.14204e-006 9.99487e-007 -6.99138e-007 -3.18055e-015 7.45443e-016 2.18663e-015 6.09203e-007 1.91925e-006 -1.27361e-006 -2.54154 -0.442429 -3.90883 -152.605 79.0325 149.131 -5.20787 54.9184 -6.23723 -1.16878e-006 -1.41555e-007 2.64159e-007 4.42383 -2.37929 3.90074 150.39 79.9688 -147.795 6.80562 54.3937 5.03929 -2.60783e-007 -1.01475e-006 -3.20442e-006 
-0.002946 -7.46726 14.4955 -90.3963 -89.7304 89.3514 0.363281 -2.71493 -0.126411 0.721774 -5.4306 -0.235963 0.721774 -5.43062 -0.235962 1.17168e-005 17.3218 -4.05206e-006 180 -89.1179 180 32.069 -39.6569 16.8468 -48.9412 -8.61684 -44.0869 -6.9975 -24.2572 -88.7703 -9.65488 -11.0712 22.8183 -1.17527e-006 9.48049e-007 7.22241e-007 1.17527e-006 -9.48049e-007 -7.22241e-007 -2.35054e-006 1.8961e-006 1.44448e-006 -1.17527e-006 9.48049e-007 7.22241e-007 -0.0146639 -9.29216e-005 -1.07455e-006 -2.35062e-006 1.89591e-006 1.44473e-006 -1.17527e-006 9.48049e-007 7.22241e-007 -0.0186982 -0.00117046 5.84745e-005 -2.35063e-006 1.89586e-006 1.44482e-006 -1.17527e-006 9.48049e-007 7.22241e-007 -0.0122777 -0.00324667 0.000668325 -2.25268e-006 -4.61285e-007 2.25957e-006 -1.17527e-006 9.48049e-007 7.22241e-007 1.17527e-006 -9.48049e-007 -7.22241e-007 -2.35054e-006 1.8961e-006 1.44448e-006 -32.1945 -39.7716 -16.3359 48.9325 -8.52149 43.9734 7.03617 -24.263 89.2934 9.02103 -10.9377 -23.5042 1.1421e-006 9.98942e-007 -6.99069e-007 3.46808e-006 -3.64244e-006 -1.99275e-006 1.27222e-014 1.4064e-014 -4.77083e-015 1.1421e-006 9.98942e-007 -6.99069e-007 0.0150004 -9.7644e-005 -3.3116e-006 -6.36111e-015 -8.05078e-015 2.98177e-015 1.1421e-006 9.98942e-007 -6.99069e-007 0.0189909 -0.0011881 -6.102e-005 -1.93108e-032 3.47873e-016 3.18055e-015 1.1421e-006 9.98942e-007 -6.99069e-007 0.0122842 -0.00325582 -0.000674568 -6.36111e-015 5.2181e-015 -2.18663e-015 1.1421e-006 9.98942e-007 -6.99069e-007 3.46808e-006 -3.64244e-006 -1.99275e-006 1.27222e-014 1.4064e-014 -4.77083e-015 -2.54154 -0.442429 -3.90883 -152.605 79.0325 149.131 -5.20787 54.9184 -6.23723 -1.16878e-006 -1.41555e-007 2.64159e-007 4.42383 -2.37929 3.90074 150.39 79.9688 -147.795 6.80562 54.3937 5.03929 -2.60783e-007 -1.01475e-006 -3.20442e-006 
-0.002946 -7.46726 14.4955 -90.3963 -89.7304 89.3514 0.36317 -2.76156 -0.126719 0.721477 -5.52383 -0.236301 0.721477 -5.52385 -0.236301 -1.45771e-005 17.055 1.03392e-005 -2.43848e-005 -89.6262 -2.4806e-005 31.91 -39.5577 16.651 -48.9412 -8.61685 -44.0869 -6.9975 -24.2572 -88.7702 -9.65487 -11.0712 22.8183 3.18055e-015 6.06293e-015 2.98177e-015 3.18055e-015 6.36111e-015 1.39149e-015 9.54166e-015 -2.98177e-016 2.5842e-015 3.18055e-015 6.06293e-015 2.98177e-015 -0.0146312 -8.54954e-005 -8.07189e-006 3.18055e-015 6.4605e-015 1.98785e-016 3.18055e-015 6.06293e-015 2.98177e-015 -0.0187585 -0.0011751 5.75078e-005 -3.18055e-015 -1.88845e-015 -4.17448e-015 3.18055e-015 6.06293e-015 2.98177e-015 -0.0123468 -0.00327127 0.000681826 3.18055e-015 -1.2424e-014 -9.93923e-016 3.18055e-015 6.06293e-015 2.98177e-015 3.18055e-015 6.36111e-015 1.39149e-015 9.54166e-015 -2.98177e-016 2.5842e-015 -32.0355 -39.6714 -16.1402 48.9325 -8.52149 43.9734 7.03619 -24.263 89.2934 9.02104 -10.9377 -23.5042 5.51738e-033 3.97569e-016 -7.95139e-016 -1.99678e-006 2.28431e-006 7.09409e-007 -2.80686e-006 -1.06467e-006 8.12544e-007 5.51738e-033 3.97569e-016 -7.95139e-016 0.0150262 -8.96551e-005 5.2356e-006 -3.1388e-006 1.2861e-006 1.40824e-006 5.51738e-033 3.97569e-016 -7.95139e-016 0.0189955 -0.00118601 -5.52873e-005 -3.13875e-006 1.28614e-006 1.40823e-006 5.51738e-033 3.97569e-016 -7.95139e-016 0.012287 -0.0032487 -0.000676266 -3.13879e-006 1.28602e-006 1.40835e-006 5.51738e-033 3.97569e-016 -7.95139e-016 -1.99678e-006 2.28431e-006 7.09409e-007 -2.80686e-006 -1.06467e-006 8.12544e-007 -2.54154 -0.442429 -3.90883 -152.605 79.0325 149.131 -5.20787 54.9184 -6.23723 -1.16878e-006 -1.41555e-007 2.64159e-007 4.42383 -2.37929 3.90074 150.39 79.9688 -147.795 6.80562 54.3937 5.03929 -2.60783e-007 -1.01475e-006 -3.20442e-006 
-0.002946 -7.46726 14.4955 -90.3963 -89.7304 89.3514 0.363056 -2.80821 -0.127027 0.721172 -5.61713 -0.236639 0.721173 -5.61716 -0.236638 3.31719e-006 16.7892 -3.12108e-006 6.92937e-006 -88.3668 7.03183e-006 31.7516 -39.4581 16.4557 -48.9412 -8.61684 -44.0869 -6.9975 -24.2572 -88.7703 -9.65487 -11.0712 22.8183 -1.89386e-006 -2.35072e-006 6.81309e-007 -4.24459e-006 -4.56857e-007 2.12563e-006 -7.18504e-007 -3.29765e-006 -4.08537e-008 -1.89386e-006 -2.35072e-006 6.81309e-007 -0.014598 -9.84901e-005 7.71078e-008 -7.18277e-007 -3.29765e-006 -4.1273e-008 -1.89386e-006 -2.35072e-006 6.81309e-007 -0.0187719 -0.00118308 5.9786e-005 -7.18214e-007 -3.29763e-006 -4.13872e-008 -1.89386e-006 -2.35072e-006 6.81309e-007 -0.012286 -0.00324908 0.000677791 -7.18333e-007 -3.29759e-006 -4.11973e-008 -1.89386e-006 -2.35072e-006 6.81309e-007 -4.24459e-006 -4.56857e-007 2.12563e-006 -7.18504e-007 -3.29765e-006 -4.08537e-008 -31.8771 -39.5707 -15.9451 48.9325 -8.52149 43.9734 7.0362 -24.263 89.2934 9.02105 -10.9377 -23.5042 1.14221e-006 9.97837e-007 -6.9893e-007 -1.14221e-006 -9.97837e-007 6.9893e-007 -1.14221e-006 -9.97837e-007 6.9893e-007 1.14221e-006 9.97837e-007 -6.9893e-007 0.0150102 -9.82812e-005 -5.86119e-006 -1.14226e-006 -9.97745e-007 6.99062e-007 1.14221e-006 9.97837e-007 -6.9893e-007 0.019003 -0.0011937 -5.55641e-005 -1.47629e-006 1.34624e-006 1.30319e-006 1.14221e-006 9.97837e-007 -6.9893e-007 0.0121922 -0.00323681 -0.000675257 -1.14223e-006 -9.97759e-007 6.9907e-007 1.14221e-006 9.97837e-007 -6.9893e-007 -1.14221e-006 -9.97837e-007 6.9893e-007 -1.14221e-006 -9.97837e-007 6.9893e-007 -2.54154 -0.442429 -3.90883 -152.605 79.0325 149.131 -5.20787 54.9184 -6.23723 -1.16878e-006 -1.41555e-007 2.64159e-007 4.42383 -2.37929 3.90074 150.39 79.9688 -147.795 6.80562 54.3937 5.03929 -2.60783e-007 -1.01475e-006 -3.20442e-006 
-0.002946 -7.46726 14.4955 -90.3963 -89.7304 89.3514 0.362939 -2.85488 -0.127333 0.720854 -5.71046 -0.236972 0.720854 -5.71049 -0.236971 9.39871e-006 16.5221 -4.19615e-006 -2.72267e-006 -87.104 -2.71379e-006 31.5939 -39.3582 16.2611 -48.9412 -8.61685 -44.0869 -6.99751 -24.2572 -88.7702 -9.65488 -11.0712 22.8183 1.17541e-006 -9.46367e-007 -7.22122e-007 1.17541e-006 -9.46367e-007 -7.22122e-007 1.17541e-006 -9.46367e-007 -7.22122e-007 1.17541e-006 -9.46367e-007 -7.22122e-007 -0.0146179 -8.78042e-005 -1.10198e-005 1.17545e-006 -9.46274e-007 -7.22243e-007 1.17541e-006 -9.46367e-007 -7.22122e-007 -0.0187778 -0.00117228 6.17409e-005 1.17546e-006 -9.46246e-007 -7.22289e-007 1.17541e-006 -9.46367e-007 -7.22122e-007 -0.0123095 -0.00326033 0.000675593 1.17542e-006 -9.46286e-007 -7.22259e-007 1.17541e-006 -9.46367e-007 -7.22122e-007 1.17541e-006 -9.46367e-007 -7.22122e-007 1.17541e-006 -9.46367e-007 -7.22122e-007 -31.7194 -39.4696 -15.7508 48.9325 -8.5215 43.9734 7.0362 -24.263 89.2934 9.02103 -10.9377 -23.5042 3.18055e-015 7.95139e-016 1.98785e-016 3.13683e-006 -1.28728e-006 -1.41428e-006 1.14228e-006 9.97277e-007 -6.9886e-007 3.18055e-015 7.95139e-016 1.98785e-016 0.0150059 -9.59793e-005 -3.19747e-006 1.14232e-006 9.97185e-007 -6.98992e-007 3.18055e-015 7.95139e-016 1.98785e-016 0.0189877 -0.00118831 -6.19931e-005 1.14233e-006 9.97158e-007 -6.99037e-007 3.18055e-015 7.95139e-016 1.98785e-016 0.0122516 -0.00324116 -0.000676355 1.14229e-006 9.97199e-007 -6.99001e-007 3.18055e-015 7.95139e-016 1.98785e-016 3.13683e-006 -1.28728e-006 -1.41428e-006 1.14228e-006 9.97277e-007 -6.9886e-007 -2.54154 -0.442429 -3.90883 -152.605 79.0325 149.131 -5.20787 54.9184 -6.23723 -1.16878e-006 -1.41555e-007 2.64159e-007 4.42383 -2.37929 3.90074 150.39 79.9688 -147.795 6.80562 54.3937 5.03929 -2.60783e-007 -1.01475e-006 -3.20442e-006 
-0.002946 -7.46726 14.4955 -90.3963 -89.7304 89.3514 0.362813 -2.90156 -0.127637 0.720527 -5.80385 -0.237304 0.720528 -5.80391 -0.237302 4.09725e-006 16.2556 -4.58372e-006 -1.30453e-006 -85.8385 -1.38607e-006 31.4368 -39.2578 16.0671 -48.9412 -8.61685 -44.0869 -6.99751 -24.2572 -88.7702 -9.65487 -11.0712 22.8183 -6.36111e-015 8.34896e-015 -2.18663e-015 -1.17546e-006 9.45798e-007 7.22082e-007 -4.75874e-032 -4.57205e-015 -5.96354e-016 -6.36111e-015 8.34896e-015 -2.18663e-015 -0.0145874 -8.51819e-005 -4.40186e-006 3.18055e-015 -5.26779e-015 -2.5842e-015 -6.36111e-015 8.34896e-015 -2.18663e-015 -0.0187292 -0.0011746 6.17426e-005 -3.18055e-015 1.78906e-015 -3.77691e-015 -6.36111e-015 8.34896e-015 -2.18663e-015 -0.0122649 -0.0032461 0.000677604 3.18055e-015 2.06736e-014 1.98785e-015 -6.36111e-015 8.34896e-015 -2.18663e-015 -1.17546e-006 9.45798e-007 7.22082e-007 -4.75874e-032 -4.57205e-015 -5.96354e-016 -31.5624 -39.368 -15.5569 48.9325 -8.52149 43.9734 7.0362 -24.263 89.2934 9.02103 -10.9377 -23.5042 1.14234e-006 9.96712e-007 -6.98791e-007 3.18055e-015 -8.79622e-015 -9.93923e-017 1.14234e-006 9.96712e-007 -6.98791e-007 1.14234e-006 9.96712e-007 -6.98791e-007 0.014984 -9.07671e-005 -8.69327e-006 1.14239e-006 9.9662e-007 -6.98922e-007 1.14234e-006 9.96712e-007 -6.98791e-007 0.019041 -0.00119988 -6.16087e-005 1.14239e-006 9.96592e-007 -6.98968e-007 1.14234e-006 9.96712e-007 -6.98791e-007 0.0123101 -0.00325598 -0.000680834 1.14235e-006 9.96633e-007 -6.98932e-007 1.14234e-006 9.96712e-007 -6.98791e-007 3.18055e-015 -8.79622e-015 -9.93923e-017 1.14234e-006 9.96712e-007 -6.98791e-007 -2.54154 -0.442429 -3.90883 -152.605 79.0325 149.131 -5.20787 54.9184 -6.23723 -1.16878e-006 -1.41555e-007 2.64159e-007 4.42383 -2.37929 3.90074 150.39 79.9688 -147.795 6.80562 54.3937 5.03929 -2.60783e-007 -1.01475e-006 -3.20442e-006 
